<svg xmlns="http://www.w3.org/2000/svg" version="1.1" xmlns:xlink="http://www.w3.org/1999/xlink" xmlns:svgjs="http://svgjs.dev/svgjs" width="24px" height="24px"><svg xmlns="http://www.w3.org/2000/svg" height="24px" viewBox="0 -960 960 960" width="24px" fill="#5f6368"><path d="m480-400-80-80 80-80 80 80-80 80Zm-85-235L295-735l185-185 185 185-100 100-85-85-85 85ZM225-295 40-480l185-185 100 100-85 85 85 85-100 100Zm510 0L635-395l85-85-85-85 100-100 185 185-185 185ZM480-40 295-225l100-100 85 85 85-85 100 100L480-40Z"></path></svg><style>@media (prefers-color-scheme: light) { :root { filter: none; } }
@media (prefers-color-scheme: dark) { :root { filter: none; } }
</style></svg>